<svg id="svg" version="1.1" xmlns="http://www.w3.org/2000/svg" xmlns:xlink="http://www.w3.org/1999/xlink" width="400" height="400" viewBox="0, 0, 400,400"><g id="svgg"><path id="path0" d="M0.000 200.000 L 0.000 400.000 200.000 400.000 L 400.000 400.000 400.000 200.000 L 400.000 0.000 200.000 0.000 L 0.000 0.000 0.000 200.000 M126.788 155.358 L 127.667 156.048 127.667 162.332 L 127.667 168.615 129.988 170.159 C 140.280 177.001,143.329 191.196,136.749 201.629 L 135.616 203.426 137.212 205.046 C 138.346 206.197,139.071 206.667,139.716 206.667 C 141.607 206.667,142.752 207.616,152.105 216.932 C 162.304 227.091,162.667 227.529,162.667 229.683 C 162.667 233.749,158.560 236.309,154.954 234.491 C 153.515 233.765,136.564 216.975,135.294 215.018 C 134.763 214.198,134.333 213.076,134.333 212.507 C 134.333 211.334,130.949 207.607,130.517 208.305 C 130.391 208.509,129.698 208.977,128.977 209.345 L 127.667 210.014 127.667 226.803 C 127.667 242.837,127.638 243.628,127.029 244.380 L 126.392 245.167 91.613 245.260 C 72.484 245.311,56.506 245.273,56.107 245.176 C 54.469 244.777,54.333 244.299,54.333 238.918 L 54.333 233.884 53.562 234.609 C 52.590 235.522,52.466 235.517,49.834 234.463 C 47.440 233.505,47.082 232.946,47.485 230.798 C 47.823 228.997,47.064 228.333,44.667 228.333 C 42.469 228.333,42.145 228.069,41.063 225.385 C 40.251 223.374,40.325 223.096,42.139 221.351 C 43.637 219.911,43.639 219.248,42.154 217.944 C 40.277 216.296,40.202 215.960,41.190 213.591 C 42.325 210.868,42.356 210.844,44.554 210.936 C 47.067 211.041,47.774 210.445,47.478 208.471 C 47.018 205.402,51.660 202.589,53.654 204.730 L 54.333 205.459 54.333 189.138 L 54.333 172.817 63.431 163.742 L 72.528 154.667 99.219 154.667 C 125.717 154.667,125.916 154.672,126.788 155.358 M75.333 166.793 C 75.333 176.505,76.394 175.473,66.283 175.600 L 58.333 175.700 58.333 190.402 C 58.333 204.982,58.339 205.098,58.987 204.512 C 59.765 203.807,61.061 203.982,63.333 205.097 L 64.833 205.833 64.934 207.987 C 65.067 210.807,65.355 211.125,67.567 210.897 C 69.714 210.676,70.271 211.085,71.285 213.628 C 72.221 215.976,72.219 215.984,70.667 217.500 C 69.778 218.367,69.333 219.095,69.333 219.680 C 69.333 220.282,69.752 220.933,70.667 221.754 C 72.262 223.186,72.273 223.329,71.014 226.136 L 70.028 228.333 67.914 228.333 C 65.322 228.333,65.001 228.624,64.995 230.983 C 64.988 233.312,64.913 233.419,62.542 234.468 C 60.248 235.482,59.763 235.524,58.943 234.782 C 58.356 234.251,58.333 234.357,58.333 237.615 L 58.333 241.000 91.000 241.000 L 123.667 241.000 123.667 226.311 C 123.667 212.474,123.633 211.632,123.083 211.805 C 104.520 217.645,87.484 196.932,96.206 179.129 C 100.722 169.911,112.750 164.018,121.664 166.656 C 123.717 167.263,123.667 167.355,123.667 163.000 L 123.667 159.000 99.500 159.000 L 75.333 159.000 75.333 166.793 M66.333 166.500 L 60.841 172.000 66.420 172.000 L 72.000 172.000 72.000 166.500 C 72.000 163.475,71.961 161.000,71.913 161.000 C 71.865 161.000,69.354 163.475,66.333 166.500 M112.189 171.844 C 98.554 175.586,94.230 193.137,104.586 202.701 C 116.303 213.521,135.120 205.283,135.120 189.333 C 135.120 177.460,123.638 168.702,112.189 171.844 M212.927 185.500 C 222.676 215.187,222.160 214.068,226.351 214.564 C 227.962 214.755,228.000 214.786,228.000 215.880 L 228.000 217.000 219.000 217.000 L 210.000 217.000 210.000 215.880 C 210.000 214.790,210.046 214.753,211.746 214.464 C 214.052 214.072,214.051 214.101,211.964 207.001 L 210.207 201.025 203.477 200.929 L 196.748 200.833 194.874 206.562 C 192.373 214.206,192.369 214.173,195.933 214.546 C 198.044 214.766,198.535 215.172,198.152 216.380 C 197.968 216.960,197.478 217.000,190.644 217.000 L 183.333 217.000 183.333 215.857 C 183.333 214.722,183.345 214.713,185.171 214.485 C 188.500 214.069,188.844 213.515,193.778 200.627 C 200.592 182.829,201.713 179.596,201.504 178.351 L 201.305 177.167 203.294 176.399 C 204.387 175.978,205.856 175.197,206.557 174.665 C 208.878 172.906,208.680 172.569,212.927 185.500 M239.167 194.203 C 239.167 216.000,238.985 214.572,241.777 214.734 C 243.447 214.830,243.500 214.864,243.500 215.833 L 243.500 216.833 235.917 216.923 L 228.333 217.013 228.333 215.840 L 228.333 214.667 230.100 214.667 C 232.830 214.667,232.669 215.653,232.648 199.017 C 232.626 181.680,232.714 182.260,229.896 180.895 C 226.906 179.446,227.228 178.919,232.167 177.175 C 234.367 176.398,236.617 175.515,237.167 175.212 C 239.286 174.046,239.167 172.916,239.167 194.203 M299.255 185.088 C 299.303 190.723,299.407 195.333,299.484 195.333 C 299.562 195.333,300.121 194.880,300.728 194.327 C 304.295 191.068,310.170 191.347,313.398 194.928 C 315.375 197.121,315.667 198.678,315.667 207.025 C 315.667 215.003,315.572 214.667,317.825 214.667 C 319.015 214.667,319.497 215.293,319.150 216.387 C 318.963 216.976,318.566 217.009,312.559 216.924 L 306.167 216.833 306.167 215.839 C 306.167 214.948,306.297 214.824,307.420 214.641 C 309.224 214.348,309.167 214.611,309.164 206.554 C 309.161 196.905,308.356 195.079,304.260 195.432 C 299.988 195.799,299.332 197.281,299.338 206.550 C 299.344 214.572,299.343 214.565,301.003 214.723 C 302.045 214.822,302.178 214.947,302.271 215.917 L 302.376 217.000 295.707 217.000 C 288.697 217.000,288.441 216.944,288.808 215.481 C 288.984 214.779,289.207 214.666,290.423 214.662 C 293.006 214.652,292.833 215.793,292.833 198.747 C 292.833 181.442,292.947 182.196,290.139 180.953 C 287.784 179.912,288.112 179.310,291.917 177.686 C 293.704 176.923,295.842 175.937,296.667 175.494 C 299.294 174.083,299.156 173.570,299.255 185.088 M329.284 179.474 C 332.659 181.220,331.257 186.328,327.400 186.332 C 324.404 186.335,322.337 183.238,323.872 181.046 C 325.149 179.223,327.485 178.544,329.284 179.474 M202.321 185.250 C 201.541 187.404,200.175 191.168,199.285 193.614 C 198.395 196.061,197.667 198.123,197.667 198.198 C 197.667 198.272,200.309 198.333,203.539 198.333 C 208.972 198.333,209.399 198.290,209.245 197.750 C 209.154 197.429,208.377 194.842,207.519 192.000 C 206.660 189.158,205.588 185.596,205.135 184.083 C 204.080 180.558,204.009 180.587,202.321 185.250 M87.000 186.167 L 87.000 188.000 78.167 188.000 L 69.333 188.000 69.333 186.167 L 69.333 184.333 78.167 184.333 L 87.000 184.333 87.000 186.167 M280.333 189.202 L 280.333 192.333 284.147 192.333 C 288.366 192.333,288.518 192.410,288.011 194.291 C 287.572 195.922,287.358 196.000,283.306 196.000 L 280.000 196.000 280.019 203.417 C 280.045 213.642,280.598 214.894,284.713 214.044 C 288.105 213.343,288.423 214.872,285.218 216.474 C 281.135 218.514,276.351 217.866,274.417 215.009 C 273.685 213.929,273.667 213.682,273.667 204.951 L 273.667 196.000 272.194 196.000 C 268.871 196.000,268.776 194.946,271.917 192.898 C 273.871 191.624,276.877 188.765,278.741 186.407 C 279.877 184.970,280.333 185.771,280.333 189.202 M261.586 192.856 C 264.570 194.342,266.680 197.497,266.783 200.622 L 266.833 202.167 259.083 202.256 L 251.333 202.346 251.333 203.946 C 251.333 212.051,259.034 216.168,264.687 211.085 C 267.284 208.750,268.551 209.808,266.684 212.752 C 261.958 220.205,249.852 219.218,246.068 211.073 C 241.180 200.551,251.863 188.010,261.586 192.856 M331.411 201.500 C 331.363 206.633,331.438 211.658,331.578 212.667 L 331.833 214.500 333.500 214.667 C 335.096 214.826,335.171 214.879,335.271 215.917 L 335.376 217.000 328.167 217.000 L 320.958 217.000 321.062 215.917 C 321.164 214.862,321.215 214.829,323.000 214.667 L 324.833 214.500 324.923 206.700 C 325.023 197.961,325.053 198.084,322.583 197.095 C 320.210 196.144,320.807 195.554,326.181 193.535 C 332.073 191.323,331.516 190.475,331.411 201.500 M353.993 192.750 C 356.776 194.172,356.780 194.188,357.114 204.265 C 357.451 214.417,357.820 215.428,360.357 213.143 C 360.808 212.737,360.968 212.738,361.523 213.154 C 362.412 213.821,361.310 215.836,359.458 216.930 C 356.839 218.479,351.667 217.043,351.667 214.768 C 351.667 214.137,351.438 214.218,350.037 215.344 C 345.984 218.601,340.199 218.486,338.793 215.121 C 337.015 210.867,339.100 207.791,346.102 204.336 L 350.500 202.167 350.600 199.859 C 350.761 196.139,349.931 194.999,347.062 195.001 C 344.477 195.002,343.500 195.885,343.500 198.223 C 343.500 200.625,342.665 201.845,340.779 202.199 C 337.365 202.839,336.993 198.498,340.218 195.666 C 343.957 192.384,350.546 190.989,353.993 192.750 M254.771 194.821 C 253.554 195.351,252.116 197.339,251.797 198.933 L 251.579 200.021 255.706 199.927 L 259.833 199.833 259.924 198.500 C 260.133 195.430,257.574 193.602,254.771 194.821 M87.000 196.500 L 87.000 198.333 78.167 198.333 L 69.333 198.333 69.333 196.500 L 69.333 194.667 78.167 194.667 L 87.000 194.667 87.000 196.500 M348.833 205.424 C 344.346 208.041,342.985 213.314,346.566 214.213 C 349.425 214.931,350.733 212.908,350.597 207.976 L 350.500 204.452 348.833 205.424 M87.000 206.833 L 87.000 208.667 78.167 208.667 L 69.333 208.667 69.333 206.833 L 69.333 205.000 78.167 205.000 L 87.000 205.000 87.000 206.833 M51.096 207.414 C 50.446 207.717,50.382 207.932,50.561 209.235 C 50.861 211.424,48.366 214.000,45.946 214.000 C 43.609 214.000,43.344 214.742,45.028 216.569 C 46.918 218.619,46.918 220.714,45.028 222.765 C 43.297 224.642,43.596 225.333,46.141 225.333 C 48.761 225.333,50.856 227.556,50.532 229.994 C 50.240 232.201,51.253 232.540,53.011 230.823 C 54.783 229.092,57.570 229.112,59.368 230.867 C 61.155 232.612,62.000 232.273,62.000 229.810 C 62.000 227.223,63.917 225.333,66.543 225.333 C 68.868 225.333,69.263 224.322,67.498 222.884 C 65.737 221.450,65.744 218.132,67.512 216.321 C 69.117 214.677,68.840 214.000,66.560 214.000 C 64.022 214.000,62.000 211.997,62.000 209.482 C 62.000 207.000,61.031 206.595,59.405 208.395 C 57.675 210.309,54.845 210.297,53.045 208.368 C 51.998 207.247,51.733 207.117,51.096 207.414 M58.356 212.534 C 62.257 213.685,64.679 218.257,63.315 221.895 C 61.236 227.437,54.368 228.761,50.591 224.349 C 45.761 218.707,51.205 210.424,58.356 212.534 M54.881 215.343 C 50.110 216.772,51.127 223.994,56.100 223.999 C 60.863 224.003,62.443 217.737,58.197 215.681 C 56.674 214.944,56.329 214.909,54.881 215.343 M116.333 217.500 L 116.333 219.333 95.167 219.333 L 74.000 219.333 74.000 217.500 L 74.000 215.667 95.167 215.667 L 116.333 215.667 116.333 217.500 M117.333 227.833 L 117.333 229.667 95.500 229.667 L 73.667 229.667 73.667 227.833 L 73.667 226.000 95.500 226.000 L 117.333 226.000 117.333 227.833 " stroke="none" fill="#1c3c64" fill-rule="evenodd"></path><path id="path1" d="M63.797 163.417 C 59.116 168.046,55.072 172.238,54.810 172.733 C 54.416 173.477,54.333 176.387,54.333 189.493 L 54.333 205.353 53.334 204.615 L 52.336 203.876 50.084 204.867 L 47.833 205.857 47.732 207.999 C 47.601 210.778,47.384 211.000,44.800 211.000 C 42.390 211.000,42.191 211.176,41.122 214.243 L 40.515 215.987 41.924 217.423 C 43.750 219.283,43.766 220.169,42.000 221.754 C 40.453 223.143,40.426 223.316,41.392 225.706 C 42.479 228.396,42.539 228.442,44.698 228.216 C 47.151 227.960,47.594 228.412,47.732 231.315 L 47.833 233.450 50.000 234.337 C 52.244 235.255,52.764 235.264,53.750 234.405 C 54.302 233.924,54.333 234.158,54.333 238.782 C 54.333 243.222,54.394 243.727,55.000 244.333 C 55.922 245.255,125.283 245.399,126.592 244.481 L 127.333 243.962 127.333 227.013 L 127.333 210.064 129.211 209.004 L 131.089 207.944 132.812 209.646 C 134.169 210.985,134.542 211.583,134.566 212.457 C 134.620 214.365,135.372 215.255,145.059 224.887 C 156.299 236.063,157.460 236.703,160.787 233.566 C 164.463 230.099,163.902 229.046,152.043 217.149 C 141.974 207.048,141.146 206.390,139.196 206.949 C 138.766 207.072,135.667 203.954,135.667 203.397 C 135.667 203.144,135.970 202.510,136.341 201.989 C 143.348 192.148,140.023 176.671,129.470 170.006 L 127.333 168.656 127.333 162.352 C 127.333 157.065,127.249 155.963,126.810 155.524 C 126.342 155.056,123.388 155.000,99.297 155.000 L 72.309 155.000 63.797 163.417 M123.667 163.022 C 123.667 167.019,123.618 167.363,123.083 167.195 C 109.578 162.946,94.823 173.609,94.085 188.150 C 93.297 203.678,107.672 215.545,122.750 211.816 L 123.667 211.589 123.667 226.461 L 123.667 241.333 90.833 241.333 L 58.000 241.333 58.000 237.667 C 58.000 233.695,58.002 233.691,59.221 234.650 C 60.102 235.343,60.081 235.346,63.083 234.044 L 64.667 233.357 64.667 231.186 C 64.667 228.481,65.275 227.919,68.046 228.070 L 69.833 228.167 70.612 226.536 C 71.982 223.666,71.946 222.944,70.368 221.694 C 68.508 220.221,68.498 219.101,70.333 217.627 C 71.946 216.331,72.012 215.575,70.739 213.000 L 69.833 211.167 67.839 211.064 C 65.169 210.927,64.667 210.441,64.667 207.989 C 64.667 205.828,64.598 205.745,61.945 204.694 C 60.072 203.952,58.667 204.088,58.667 205.012 C 58.667 205.189,58.517 205.333,58.333 205.333 C 58.116 205.333,58.000 200.111,58.000 190.333 L 58.000 175.333 66.143 175.333 C 76.417 175.333,75.333 176.377,75.333 166.476 L 75.333 158.667 99.500 158.667 L 123.667 158.667 123.667 163.022 M72.333 166.500 L 72.333 172.000 66.427 172.000 L 60.520 172.000 66.010 166.524 C 69.030 163.512,71.688 161.037,71.917 161.024 C 72.234 161.006,72.333 162.310,72.333 166.500 M123.060 172.088 C 142.377 179.132,137.517 207.667,117.000 207.667 C 100.996 207.667,92.707 188.878,103.494 177.051 C 108.430 171.638,116.330 169.634,123.060 172.088 M207.547 174.281 C 207.051 174.829,203.721 176.503,201.882 177.129 C 201.441 177.279,201.338 177.506,201.521 177.919 C 202.020 179.048,201.662 180.268,197.885 190.333 C 188.801 214.533,188.732 214.667,185.288 214.667 C 183.681 214.667,183.667 214.676,183.667 215.750 L 183.667 216.833 190.750 216.801 L 197.833 216.770 197.833 215.801 C 197.833 214.859,197.780 214.829,195.833 214.665 C 192.312 214.370,192.215 213.568,194.784 206.000 L 196.539 200.833 203.377 200.743 L 210.216 200.653 211.756 205.577 C 214.514 214.398,214.513 214.554,211.748 214.732 C 210.247 214.828,210.167 214.883,210.167 215.804 L 210.167 216.774 218.787 216.750 C 227.676 216.725,228.247 216.638,227.844 215.367 C 227.658 214.781,227.355 214.667,225.989 214.667 C 222.669 214.667,221.871 213.297,217.545 200.167 C 208.231 171.899,208.671 173.040,207.547 174.281 M236.642 175.659 C 235.987 176.006,233.849 176.842,231.892 177.518 C 228.057 178.843,227.308 179.645,229.250 180.348 C 232.971 181.696,232.800 180.811,232.818 198.776 C 232.835 216.172,233.045 215.000,229.914 215.000 C 228.353 215.000,228.293 215.035,228.395 215.881 L 228.500 216.761 235.833 216.747 L 243.167 216.733 243.272 215.866 C 243.373 215.037,243.308 215.000,241.740 215.000 C 238.627 215.000,238.823 216.434,238.901 194.297 C 238.977 172.731,239.170 174.323,236.642 175.659 M295.500 176.265 C 294.033 176.971,291.971 177.902,290.917 178.335 C 288.554 179.306,288.457 179.937,290.519 180.939 C 293.081 182.183,293.047 181.948,293.111 198.917 L 293.167 213.723 292.380 214.362 C 291.901 214.750,291.077 215.000,290.274 215.000 C 289.042 215.000,288.963 215.058,289.061 215.887 L 289.167 216.773 295.500 216.758 L 301.833 216.743 301.939 215.871 C 302.032 215.101,301.928 215.000,301.041 215.000 C 299.170 215.000,299.000 214.318,299.002 206.842 C 299.004 197.982,299.618 196.334,303.284 195.347 C 308.022 194.071,309.329 196.528,309.331 206.723 C 309.334 214.681,309.350 214.603,307.613 214.881 C 306.451 215.066,306.310 215.188,306.399 215.921 L 306.500 216.752 312.667 216.752 L 318.833 216.752 318.939 215.876 C 319.032 215.101,318.929 215.000,318.044 215.000 C 317.494 215.000,316.668 214.857,316.210 214.683 L 315.376 214.366 315.271 206.100 C 315.169 198.042,315.146 197.798,314.354 196.414 C 311.741 191.851,305.466 190.981,300.809 194.536 C 299.994 195.158,299.242 195.667,299.136 195.667 C 299.031 195.667,298.985 191.054,299.035 185.417 C 299.138 173.568,299.447 174.367,295.500 176.265 M324.845 180.368 C 323.888 181.208,323.667 181.638,323.667 182.656 C 323.667 186.096,328.563 187.493,330.349 184.563 C 332.580 180.904,328.112 177.499,324.845 180.368 M206.964 189.417 C 208.308 193.862,209.428 197.725,209.454 198.000 C 209.493 198.424,208.605 198.514,203.583 198.591 C 198.005 198.677,197.667 198.647,197.667 198.062 C 197.667 197.462,202.187 184.613,203.171 182.417 C 204.080 180.387,204.431 181.035,206.964 189.417 M69.667 186.000 L 69.667 187.667 78.333 187.667 L 87.000 187.667 87.000 186.000 L 87.000 184.333 78.333 184.333 L 69.667 184.333 69.667 186.000 M278.352 187.136 C 277.417 188.649,273.668 192.128,271.427 193.561 C 269.212 194.978,269.309 195.451,271.859 195.667 L 273.833 195.833 273.833 204.833 C 273.833 214.979,273.843 215.019,276.589 216.726 C 279.700 218.661,288.537 216.417,287.050 214.070 C 286.843 213.743,286.556 213.725,285.843 213.996 C 280.869 215.887,279.667 213.820,279.667 203.380 C 279.667 194.932,279.284 195.667,283.683 195.667 C 287.614 195.667,287.503 195.714,287.838 193.925 L 288.070 192.688 284.118 192.594 L 280.167 192.500 280.111 189.667 C 280.081 188.108,280.044 186.646,280.028 186.417 C 279.974 185.613,279.048 186.011,278.352 187.136 M253.297 192.792 C 245.640 194.856,242.568 206.479,247.802 213.588 C 252.164 219.513,262.613 218.839,266.717 212.367 C 268.173 210.071,266.992 209.076,265.146 211.043 C 259.999 216.528,251.282 212.373,251.192 204.391 L 251.167 202.167 258.917 202.077 L 266.667 201.988 266.667 200.887 C 266.667 194.725,260.340 190.894,253.297 192.792 M325.750 193.908 C 321.164 195.594,320.779 196.067,323.095 197.167 C 325.303 198.214,325.371 198.519,325.262 206.889 C 325.156 215.135,325.267 214.754,322.896 214.993 C 321.347 215.149,321.167 215.249,321.167 215.958 L 321.167 216.750 328.083 216.792 L 335.000 216.833 335.000 215.917 C 335.000 215.072,334.897 215.000,333.690 215.000 C 331.163 215.000,330.685 211.974,331.159 198.975 L 331.402 192.333 330.618 192.370 C 330.186 192.390,327.996 193.083,325.750 193.908 M345.599 192.977 C 340.200 194.703,336.499 199.165,338.667 201.333 C 340.699 203.366,343.333 201.386,343.333 197.826 C 343.333 195.646,344.293 194.923,347.244 194.880 C 350.032 194.840,350.805 195.818,350.821 199.412 L 350.833 202.167 346.229 204.500 C 339.844 207.736,338.667 209.024,338.667 212.773 C 338.667 218.124,345.134 219.374,350.129 214.988 C 350.804 214.396,351.400 213.969,351.453 214.039 C 351.507 214.109,351.880 214.714,352.282 215.383 C 354.024 218.281,358.892 218.293,360.950 215.404 C 362.134 213.741,361.461 212.158,360.133 213.486 C 359.289 214.330,357.572 214.039,357.269 213.000 C 357.135 212.542,356.908 208.316,356.763 203.609 C 356.502 195.111,356.494 195.046,355.667 194.150 C 353.901 192.238,349.509 191.727,345.599 192.977 M258.780 195.018 C 259.730 195.765,260.465 197.721,260.282 199.013 C 260.137 200.037,259.282 200.241,254.906 200.294 C 251.009 200.341,250.845 200.172,252.168 197.468 C 253.625 194.489,256.673 193.360,258.780 195.018 M69.667 196.333 L 69.667 198.000 78.333 198.000 L 87.000 198.000 87.000 196.333 L 87.000 194.667 78.333 194.667 L 69.667 194.667 69.667 196.333 M350.304 212.865 C 346.962 216.422,342.887 213.347,344.960 208.833 C 345.685 207.256,346.181 206.791,348.833 205.201 L 350.833 204.003 350.927 208.052 C 351.015 211.808,350.969 212.156,350.304 212.865 M69.667 207.000 L 69.667 208.667 78.333 208.667 L 87.000 208.667 87.000 207.000 L 87.000 205.333 78.333 205.333 L 69.667 205.333 69.667 207.000 M53.000 208.167 C 54.674 209.893,57.560 209.898,59.323 208.177 C 61.066 206.474,61.997 206.802,62.009 209.122 C 62.023 211.789,63.865 213.667,66.468 213.667 C 69.005 213.667,69.391 214.730,67.543 216.623 C 65.770 218.438,65.770 220.895,67.543 222.710 C 69.352 224.563,69.006 225.633,66.671 225.409 C 64.221 225.174,62.000 227.330,62.000 229.944 C 62.000 232.513,61.038 232.906,59.328 231.035 C 57.529 229.067,55.336 229.039,53.243 230.959 C 51.254 232.783,50.333 232.452,50.333 229.913 C 50.333 227.320,48.251 225.227,45.820 225.376 C 43.460 225.521,43.054 224.489,44.777 222.724 C 46.579 220.879,46.583 218.259,44.786 216.564 C 42.890 214.775,43.327 213.605,45.854 213.707 C 48.588 213.818,50.333 212.097,50.333 209.290 C 50.333 207.395,50.384 207.311,51.685 207.039 C 51.786 207.017,52.378 207.525,53.000 208.167 M52.979 213.250 C 49.293 215.119,47.976 219.067,49.797 222.789 C 53.161 229.665,63.491 227.277,63.421 219.640 C 63.371 214.084,57.916 210.746,52.979 213.250 M58.701 215.754 C 61.252 217.453,61.618 220.693,59.499 222.812 C 55.737 226.575,49.728 222.049,52.183 217.302 C 53.336 215.072,56.536 214.313,58.701 215.754 M74.000 217.333 L 74.000 219.000 95.167 219.000 L 116.333 219.000 116.333 217.333 L 116.333 215.667 95.167 215.667 L 74.000 215.667 74.000 217.333 M73.667 227.667 L 73.667 229.333 95.333 229.333 L 117.000 229.333 117.000 227.667 L 117.000 226.000 95.333 226.000 L 73.667 226.000 73.667 227.667 " stroke="none" fill="#f8f8f9" fill-rule="evenodd"></path><path id="path2" d="M127.472 162.667 C 127.472 166.058,127.521 167.446,127.582 165.750 C 127.642 164.054,127.642 161.279,127.582 159.583 C 127.521 157.887,127.472 159.275,127.472 162.667 M72.136 166.500 C 72.136 169.617,72.186 170.937,72.248 169.433 C 72.309 167.930,72.310 165.380,72.248 163.766 C 72.187 162.153,72.137 163.383,72.136 166.500 M69.812 162.750 L 68.833 163.833 69.917 162.854 C 70.926 161.942,71.153 161.667,70.896 161.667 C 70.838 161.667,70.351 162.154,69.812 162.750 M62.657 169.917 L 60.500 172.167 62.750 170.010 C 63.987 168.823,65.000 167.811,65.000 167.760 C 65.000 167.514,64.661 167.827,62.657 169.917 M299.147 186.500 C 299.147 191.633,299.193 193.687,299.249 191.063 C 299.306 188.440,299.306 184.240,299.249 181.730 C 299.193 179.220,299.146 181.367,299.147 186.500 M69.433 186.000 C 69.433 187.008,69.496 187.421,69.572 186.917 C 69.648 186.412,69.648 185.588,69.572 185.083 C 69.496 184.579,69.433 184.992,69.433 186.000 M280.103 189.167 C 280.105 190.267,280.167 190.676,280.242 190.077 C 280.316 189.478,280.314 188.578,280.238 188.077 C 280.162 187.576,280.101 188.067,280.103 189.167 M232.818 200.833 C 232.818 207.800,232.862 210.697,232.916 207.272 C 232.970 203.847,232.970 198.147,232.916 194.605 C 232.862 191.064,232.818 193.867,232.818 200.833 M238.814 199.667 C 238.814 204.892,238.860 207.029,238.916 204.417 C 238.972 201.804,238.972 197.529,238.916 194.917 C 238.860 192.304,238.814 194.442,238.814 199.667 M256.917 192.235 C 257.329 192.315,258.004 192.315,258.417 192.235 C 258.829 192.156,258.492 192.091,257.667 192.091 C 256.842 192.091,256.504 192.156,256.917 192.235 M349.587 192.236 C 350.002 192.315,350.602 192.312,350.921 192.229 C 351.239 192.146,350.900 192.080,350.167 192.084 C 349.433 192.088,349.173 192.156,349.587 192.236 M282.083 192.580 C 283.137 192.646,284.862 192.646,285.917 192.580 C 286.971 192.514,286.108 192.459,284.000 192.459 C 281.892 192.459,281.029 192.514,282.083 192.580 M293.145 202.500 C 293.145 207.267,293.192 209.170,293.249 206.730 C 293.306 204.290,293.306 200.390,293.249 198.064 C 293.192 195.737,293.145 197.733,293.145 202.500 M69.395 196.417 L 69.333 198.333 78.250 198.256 L 87.167 198.178 78.434 198.084 L 69.701 197.989 69.579 196.244 L 69.457 194.500 69.395 196.417 M273.800 200.833 C 273.800 203.583,273.852 204.664,273.915 203.235 C 273.977 201.806,273.977 199.556,273.914 198.235 C 273.851 196.914,273.800 198.083,273.800 200.833 M279.767 198.000 C 279.767 199.008,279.829 199.421,279.905 198.917 C 279.982 198.412,279.982 197.588,279.905 197.083 C 279.829 196.579,279.767 196.992,279.767 198.000 M209.333 197.944 C 209.333 198.223,207.660 198.355,203.417 198.408 L 197.500 198.483 203.309 198.583 C 208.706 198.676,210.255 198.478,209.561 197.783 C 209.436 197.658,209.333 197.731,209.333 197.944 M356.785 200.833 C 356.784 202.483,356.840 203.200,356.910 202.427 C 356.980 201.653,356.981 200.303,356.912 199.427 C 356.843 198.550,356.786 199.183,356.785 200.833 M331.137 204.333 C 331.137 207.542,331.187 208.854,331.248 207.250 C 331.309 205.646,331.309 203.021,331.248 201.417 C 331.187 199.813,331.137 201.125,331.137 204.333 M299.142 206.667 C 299.142 210.608,299.190 212.221,299.249 210.250 C 299.308 208.279,299.308 205.054,299.249 203.083 C 299.190 201.112,299.142 202.725,299.142 206.667 M253.250 200.246 C 254.213 200.313,255.787 200.313,256.750 200.246 C 257.712 200.178,256.925 200.123,255.000 200.123 C 253.075 200.123,252.287 200.178,253.250 200.246 M251.217 202.250 C 251.132 202.387,253.336 202.461,256.114 202.414 C 265.321 202.258,266.259 202.135,258.770 202.067 C 254.701 202.030,251.303 202.112,251.217 202.250 M245.100 204.667 C 245.100 205.675,245.162 206.088,245.239 205.583 C 245.315 205.079,245.315 204.254,245.239 203.750 C 245.162 203.246,245.100 203.658,245.100 204.667 M137.238 205.333 C 138.194 206.324,139.026 207.067,139.086 206.984 C 139.147 206.901,138.364 206.090,137.348 205.182 L 135.500 203.530 137.238 205.333 M69.433 207.000 C 69.433 208.008,69.496 208.421,69.572 207.917 C 69.648 207.412,69.648 206.588,69.572 206.083 C 69.496 205.579,69.433 205.992,69.433 207.000 M325.103 210.833 C 325.105 211.933,325.167 212.343,325.242 211.744 C 325.316 211.145,325.314 210.245,325.238 209.744 C 325.162 209.243,325.101 209.733,325.103 210.833 M127.486 210.083 C 127.398 210.313,127.366 217.925,127.413 227.000 L 127.500 243.500 127.667 226.583 C 127.758 217.279,127.791 209.667,127.740 209.667 C 127.688 209.667,127.574 209.854,127.486 210.083 M344.411 211.000 C 344.411 211.642,344.479 211.904,344.563 211.583 C 344.647 211.262,344.647 210.737,344.563 210.417 C 344.479 210.096,344.411 210.358,344.411 211.000 M338.411 212.667 C 338.411 213.308,338.479 213.571,338.563 213.250 C 338.647 212.929,338.647 212.404,338.563 212.083 C 338.479 211.762,338.411 212.025,338.411 212.667 M115.923 212.575 C 116.522 212.649,117.422 212.648,117.923 212.572 C 118.424 212.495,117.933 212.435,116.833 212.437 C 115.733 212.438,115.324 212.501,115.923 212.575 M148.986 214.083 C 150.367 215.555,150.667 215.820,150.667 215.569 C 150.667 215.516,149.954 214.803,149.083 213.986 L 147.500 212.500 148.986 214.083 M229.583 214.902 C 229.996 214.981,230.671 214.981,231.083 214.902 C 231.496 214.822,231.158 214.757,230.333 214.757 C 229.508 214.757,229.171 214.822,229.583 214.902 M240.755 214.906 C 241.261 214.982,242.011 214.980,242.421 214.901 C 242.831 214.822,242.417 214.760,241.500 214.762 C 240.583 214.765,240.248 214.829,240.755 214.906 M290.083 214.896 C 290.404 214.980,290.929 214.980,291.250 214.896 C 291.571 214.813,291.308 214.744,290.667 214.744 C 290.025 214.744,289.762 214.813,290.083 214.896 M317.083 214.896 C 317.404 214.980,317.929 214.980,318.250 214.896 C 318.571 214.813,318.308 214.744,317.667 214.744 C 317.025 214.744,316.762 214.813,317.083 214.896 M322.250 214.902 C 322.662 214.981,323.337 214.981,323.750 214.902 C 324.162 214.822,323.825 214.757,323.000 214.757 C 322.175 214.757,321.837 214.822,322.250 214.902 M332.921 214.902 C 333.335 214.982,333.935 214.979,334.254 214.896 C 334.573 214.812,334.233 214.747,333.500 214.751 C 332.767 214.754,332.506 214.823,332.921 214.902 M152.667 217.833 C 153.662 218.842,154.552 219.667,154.644 219.667 C 154.736 219.667,153.996 218.842,153.000 217.833 C 152.004 216.825,151.114 216.000,151.023 216.000 C 150.931 216.000,151.671 216.825,152.667 217.833 M185.750 216.896 C 186.071 216.980,186.596 216.980,186.917 216.896 C 187.237 216.813,186.975 216.744,186.333 216.744 C 185.692 216.744,185.429 216.813,185.750 216.896 M193.583 216.902 C 193.996 216.981,194.671 216.981,195.083 216.902 C 195.496 216.822,195.158 216.757,194.333 216.757 C 193.508 216.757,193.171 216.822,193.583 216.902 M213.421 216.906 C 213.928 216.982,214.678 216.980,215.088 216.901 C 215.498 216.822,215.083 216.760,214.167 216.762 C 213.250 216.765,212.915 216.829,213.421 216.906 M223.421 216.906 C 223.928 216.982,224.678 216.980,225.088 216.901 C 225.498 216.822,225.083 216.760,224.167 216.762 C 223.250 216.765,222.915 216.829,223.421 216.906 M231.088 216.906 C 231.595 216.982,232.345 216.980,232.755 216.901 C 233.165 216.822,232.750 216.760,231.833 216.762 C 230.917 216.765,230.581 216.829,231.088 216.906 M239.583 216.902 C 239.996 216.981,240.671 216.981,241.083 216.902 C 241.496 216.822,241.158 216.757,240.333 216.757 C 239.508 216.757,239.171 216.822,239.583 216.902 M291.587 216.902 C 292.002 216.982,292.602 216.979,292.921 216.896 C 293.239 216.812,292.900 216.747,292.167 216.751 C 291.433 216.754,291.173 216.823,291.587 216.902 M298.587 216.902 C 299.002 216.982,299.602 216.979,299.921 216.896 C 300.239 216.812,299.900 216.747,299.167 216.751 C 298.433 216.754,298.173 216.823,298.587 216.902 M308.583 216.902 C 308.996 216.981,309.671 216.981,310.083 216.902 C 310.496 216.822,310.158 216.757,309.333 216.757 C 308.508 216.757,308.171 216.822,308.583 216.902 M315.750 216.896 C 316.071 216.980,316.596 216.980,316.917 216.896 C 317.237 216.813,316.975 216.744,316.333 216.744 C 315.692 216.744,315.429 216.813,315.750 216.896 M323.583 216.902 C 323.996 216.981,324.671 216.981,325.083 216.902 C 325.496 216.822,325.158 216.757,324.333 216.757 C 323.508 216.757,323.171 216.822,323.583 216.902 M331.250 216.902 C 331.662 216.981,332.337 216.981,332.750 216.902 C 333.162 216.822,332.825 216.757,332.000 216.757 C 331.175 216.757,330.837 216.822,331.250 216.902 M157.833 223.000 C 159.476 224.650,160.894 226.000,160.986 226.000 C 161.078 226.000,159.809 224.650,158.167 223.000 C 156.524 221.350,155.106 220.000,155.014 220.000 C 154.922 220.000,156.191 221.350,157.833 223.000 M117.000 227.664 L 117.000 229.329 95.250 229.417 L 73.500 229.505 95.417 229.586 L 117.333 229.667 117.333 227.833 C 117.333 226.825,117.258 226.000,117.167 226.000 C 117.075 226.000,117.000 226.749,117.000 227.664 " stroke="none" fill="#94a4ba" fill-rule="evenodd"></path><path id="path3" d="M87.583 158.917 C 94.229 158.967,105.104 158.967,111.750 158.917 C 118.396 158.866,112.958 158.825,99.667 158.825 C 86.375 158.825,80.938 158.866,87.583 158.917 M58.153 190.500 C 58.153 198.750,58.197 202.077,58.250 197.894 C 58.303 193.711,58.303 186.961,58.250 182.894 C 58.197 178.827,58.153 182.250,58.153 190.500 M279.801 204.667 C 279.801 207.508,279.852 208.671,279.914 207.250 C 279.977 205.829,279.977 203.504,279.914 202.083 C 279.852 200.662,279.801 201.825,279.801 204.667 M325.131 204.667 C 325.131 207.142,325.183 208.154,325.247 206.917 C 325.311 205.679,325.311 203.654,325.247 202.417 C 325.183 201.179,325.131 202.192,325.131 204.667 M73.770 205.249 C 76.302 205.306,80.352 205.306,82.770 205.249 C 85.188 205.192,83.117 205.146,78.167 205.146 C 73.217 205.146,71.238 205.193,73.770 205.249 M55.256 209.575 C 55.855 209.649,56.755 209.648,57.256 209.572 C 57.757 209.495,57.267 209.435,56.167 209.437 C 55.067 209.438,54.657 209.501,55.256 209.575 M188.760 216.912 C 189.636 216.981,190.986 216.980,191.760 216.910 C 192.534 216.840,191.817 216.784,190.167 216.785 C 188.517 216.786,187.884 216.843,188.760 216.912 M217.429 216.913 C 218.490 216.980,220.140 216.979,221.096 216.912 C 222.051 216.845,221.183 216.791,219.167 216.791 C 217.150 216.792,216.368 216.847,217.429 216.913 M234.760 216.912 C 235.636 216.981,236.986 216.980,237.760 216.910 C 238.534 216.840,237.817 216.784,236.167 216.785 C 234.517 216.786,233.884 216.843,234.760 216.912 M294.417 216.909 C 295.104 216.981,296.229 216.981,296.917 216.909 C 297.604 216.838,297.042 216.779,295.667 216.779 C 294.292 216.779,293.729 216.838,294.417 216.909 M311.750 216.909 C 312.438 216.981,313.563 216.981,314.250 216.909 C 314.938 216.838,314.375 216.779,313.000 216.779 C 311.625 216.779,311.063 216.838,311.750 216.909 M326.925 216.911 C 327.709 216.982,328.909 216.981,329.592 216.909 C 330.275 216.837,329.633 216.780,328.167 216.781 C 326.700 216.782,326.141 216.841,326.925 216.911 M58.148 237.500 L 58.167 241.167 90.917 241.169 L 123.667 241.172 91.011 241.084 L 58.356 240.997 58.243 237.415 L 58.129 233.833 58.148 237.500 " stroke="none" fill="#8a9cb4" fill-rule="evenodd"></path><path id="path4" d="M85.917 154.917 C 93.296 154.967,105.371 154.967,112.750 154.917 C 120.129 154.867,114.092 154.826,99.333 154.826 C 84.575 154.826,78.538 154.867,85.917 154.917 M116.250 171.235 C 116.662 171.315,117.337 171.315,117.750 171.235 C 118.162 171.156,117.825 171.091,117.000 171.091 C 116.175 171.091,115.837 171.156,116.250 171.235 M62.083 175.582 C 64.237 175.640,67.762 175.640,69.917 175.582 C 72.071 175.524,70.308 175.477,66.000 175.477 C 61.692 175.477,59.929 175.524,62.083 175.582 M239.140 184.500 C 239.140 188.167,239.188 189.712,239.248 187.934 C 239.308 186.157,239.308 183.157,239.249 181.268 C 239.189 179.379,239.140 180.833,239.140 184.500 M73.770 187.916 C 76.302 187.973,80.352 187.973,82.770 187.916 C 85.188 187.859,83.117 187.812,78.167 187.813 C 73.217 187.813,71.238 187.859,73.770 187.916 M275.982 189.583 L 274.833 190.833 276.083 189.685 C 277.247 188.615,277.487 188.333,277.232 188.333 C 277.176 188.333,276.614 188.896,275.982 189.583 M331.327 193.766 L 331.488 195.500 331.599 194.038 C 331.660 193.234,331.587 192.454,331.438 192.304 C 331.289 192.155,331.239 192.812,331.327 193.766 M271.083 195.905 C 271.587 195.982,272.412 195.982,272.917 195.905 C 273.421 195.829,273.008 195.767,272.000 195.767 C 270.992 195.767,270.579 195.829,271.083 195.905 M281.917 195.912 C 282.879 195.980,284.454 195.980,285.417 195.912 C 286.379 195.845,285.592 195.790,283.667 195.790 C 281.742 195.790,280.954 195.845,281.917 195.912 M343.411 198.667 C 343.411 199.308,343.479 199.571,343.563 199.250 C 343.647 198.929,343.647 198.404,343.563 198.083 C 343.479 197.762,343.411 198.025,343.411 198.667 M350.662 200.235 C 350.573 201.372,350.621 202.181,350.769 202.032 C 350.917 201.884,350.990 200.953,350.931 199.964 L 350.824 198.167 350.662 200.235 M315.476 206.667 C 315.476 210.792,315.524 212.479,315.582 210.417 C 315.641 208.354,315.641 204.979,315.582 202.917 C 315.524 200.854,315.476 202.542,315.476 206.667 M200.268 200.915 C 202.157 200.975,205.157 200.975,206.934 200.915 C 208.712 200.855,207.167 200.806,203.500 200.807 C 199.833 200.807,198.379 200.856,200.268 200.915 M350.794 208.167 C 350.795 210.367,350.849 211.223,350.914 210.070 C 350.979 208.917,350.979 207.117,350.913 206.070 C 350.847 205.023,350.793 205.967,350.794 208.167 M357.123 209.000 C 357.123 210.925,357.178 211.713,357.246 210.750 C 357.313 209.787,357.313 208.213,357.246 207.250 C 357.178 206.287,357.123 207.075,357.123 209.000 M47.417 207.500 C 47.421 208.233,47.489 208.494,47.569 208.079 C 47.649 207.665,47.646 207.065,47.562 206.746 C 47.479 206.427,47.414 206.767,47.417 207.500 M132.500 209.667 C 133.403 210.583,134.217 211.333,134.308 211.333 C 134.400 211.333,133.736 210.583,132.833 209.667 C 131.930 208.750,131.117 208.000,131.025 208.000 C 130.933 208.000,131.597 208.750,132.500 209.667 M239.114 210.833 C 239.115 212.300,239.174 212.859,239.244 212.075 C 239.315 211.291,239.314 210.091,239.242 209.408 C 239.171 208.725,239.113 209.367,239.114 210.833 M50.417 209.833 C 50.421 210.567,50.489 210.827,50.569 210.413 C 50.649 209.998,50.646 209.398,50.562 209.079 C 50.479 208.761,50.414 209.100,50.417 209.833 M331.411 212.667 C 331.411 213.308,331.479 213.571,331.563 213.250 C 331.647 212.929,331.647 212.404,331.563 212.083 C 331.479 211.762,331.411 212.025,331.411 212.667 M265.146 214.417 L 264.167 215.500 265.250 214.521 C 266.260 213.608,266.487 213.333,266.229 213.333 C 266.172 213.333,265.684 213.821,265.146 214.417 M44.210 213.930 C 44.120 214.075,44.561 214.134,45.190 214.061 C 45.819 213.987,46.333 213.868,46.333 213.797 C 46.333 213.546,44.371 213.669,44.210 213.930 M144.167 224.333 C 148.931 229.100,152.904 233.000,152.995 233.000 C 153.087 233.000,149.264 229.100,144.500 224.333 C 139.736 219.567,135.763 215.667,135.671 215.667 C 135.580 215.667,139.403 219.567,144.167 224.333 M46.100 219.667 C 46.100 220.675,46.162 221.088,46.239 220.583 C 46.315 220.079,46.315 219.254,46.239 218.750 C 46.162 218.246,46.100 218.658,46.100 219.667 M69.128 218.814 C 69.027 219.078,69.002 219.566,69.074 219.897 C 69.156 220.274,69.270 220.093,69.378 219.417 C 69.559 218.281,69.442 217.997,69.128 218.814 M84.607 219.250 C 90.533 219.301,100.133 219.301,105.941 219.250 C 111.748 219.199,106.900 219.157,95.167 219.157 C 83.433 219.157,78.682 219.199,84.607 219.250 M48.833 226.667 C 49.549 227.400,50.210 228.000,50.302 228.000 C 50.394 228.000,49.883 227.400,49.167 226.667 C 48.451 225.933,47.790 225.333,47.698 225.333 C 47.606 225.333,48.117 225.933,48.833 226.667 M50.411 229.333 C 50.411 229.975,50.479 230.237,50.563 229.917 C 50.647 229.596,50.647 229.071,50.563 228.750 C 50.479 228.429,50.411 228.692,50.411 229.333 M47.417 231.833 C 47.421 232.567,47.489 232.827,47.569 232.413 C 47.649 231.998,47.646 231.398,47.562 231.079 C 47.479 230.761,47.414 231.100,47.417 231.833 M73.442 245.250 C 83.127 245.299,98.877 245.299,108.442 245.250 C 118.007 245.201,110.083 245.161,90.833 245.161 C 71.583 245.161,63.757 245.201,73.442 245.250 " stroke="none" fill="#6d83a0" fill-rule="evenodd"></path></g></svg>